<svg width="34" height="34" viewBox="0 0 34 34" fill="none" xmlns="http://www.w3.org/2000/svg">
<g clip-path="url(#clip0_110_5550)">
<mask id="mask0_110_5550" style="mask-type:luminance" maskUnits="userSpaceOnUse" x="0" y="0" width="34" height="35">
<path d="M0.00390625 0H33.9974V34.0004H0.00390625V0Z" fill="white"/>
</mask>
<g mask="url(#mask0_110_5550)">
<path fill-rule="evenodd" clip-rule="evenodd" d="M-7.82275 0H60.1781V11.3335H-7.82275V0Z" fill="#000001"/>
<path fill-rule="evenodd" clip-rule="evenodd" d="M-7.82275 11.3335H60.1781V22.667H-7.82275V11.3335Z" fill="white"/>
<path fill-rule="evenodd" clip-rule="evenodd" d="M-7.82275 22.667H60.1781V34.0005H-7.82275V22.667Z" fill="#009900"/>
<path fill-rule="evenodd" clip-rule="evenodd" d="M-7.82275 34.0004L26.1777 16.9968L-7.82275 0V34.0004Z" fill="#FF0000"/>
<path fill-rule="evenodd" clip-rule="evenodd" d="M3.53148 16.8109L5.04721 17.5412H3.35924L3.73817 19.1947L2.68406 17.865L1.62994 19.1878L2.00887 17.5412H0.307129L1.82974 16.804L0.775625 15.4881L2.29824 16.2184L2.67717 14.5718L3.0561 16.2253L4.57182 15.4881L3.53148 16.8109Z" fill="white"/>
</g>
</g>
<defs>
<clipPath id="clip0_110_5550">
<rect width="34" height="34" fill="white"/>
</clipPath>
</defs>
</svg>
