<svg width="20" height="20" viewBox="0 0 20 20" fill="none" xmlns="http://www.w3.org/2000/svg">
<path d="M12.5 10C12.5 10.663 12.2366 11.2989 11.7678 11.7678C11.2989 12.2366 10.663 12.5 10 12.5C9.33696 12.5 8.70107 12.2366 8.23223 11.7678C7.76339 11.2989 7.5 10.663 7.5 10C7.5 9.33696 7.76339 8.70107 8.23223 8.23223C8.70107 7.76339 9.33696 7.5 10 7.5C10.663 7.5 11.2989 7.76339 11.7678 8.23223C12.2366 8.70107 12.5 9.33696 12.5 10Z" fill="#818181"/>
<path d="M18.2449 9.62734C16.4465 6.02984 13.2532 4.1665 9.99988 4.1665C6.74655 4.1665 3.55321 6.02984 1.75488 9.62734C1.69708 9.743 1.66699 9.87053 1.66699 9.99984C1.66699 10.1291 1.69708 10.2567 1.75488 10.3723C3.55321 13.9698 6.74655 15.8332 9.99988 15.8332C13.2532 15.8332 16.4465 13.9698 18.2449 10.3723C18.3027 10.2567 18.3328 10.1291 18.3328 9.99984C18.3328 9.87053 18.3027 9.743 18.2449 9.62734ZM9.99988 14.1665C7.52571 14.1665 4.99821 12.8165 3.44155 9.99984C4.99821 7.18317 7.52488 5.83317 9.99988 5.83317C12.4749 5.83317 15.0015 7.18317 16.5582 9.99984C15.0015 12.8165 12.474 14.1665 9.99988 14.1665Z" fill="#818181"/>
</svg>
