<svg width="20" height="20" viewBox="0 0 20 20" fill="none" xmlns="http://www.w3.org/2000/svg">
<path d="M3.92238 2.74418C3.76521 2.59238 3.55471 2.50839 3.33621 2.51029C3.11772 2.51218 2.90871 2.59982 2.7542 2.75433C2.59969 2.90884 2.51205 3.11785 2.51015 3.33635C2.50825 3.55484 2.59225 3.76535 2.74405 3.92251L4.76405 5.94251C3.57238 6.83918 2.53238 8.07085 1.75488 9.62751C1.69708 9.74318 1.66699 9.87071 1.66699 10C1.66699 10.1293 1.69708 10.2568 1.75488 10.3725C3.55321 13.97 6.74655 15.8333 9.99988 15.8333C11.2957 15.8333 12.5832 15.5375 13.7749 14.9542L16.0774 17.2558C16.2345 17.4076 16.4451 17.4916 16.6635 17.4897C16.882 17.4878 17.0911 17.4002 17.2456 17.2457C17.4001 17.0912 17.4877 16.8822 17.4896 16.6637C17.4915 16.4452 17.4075 16.2347 17.2557 16.0775L3.92238 2.74418ZM12.5115 13.69C11.6949 14.0092 10.8449 14.1667 9.99988 14.1667C7.52571 14.1667 4.99821 12.8167 3.44155 10C4.12238 8.76751 4.98988 7.81668 5.95655 7.13585L7.74321 8.92251C7.51995 9.38914 7.44693 9.91353 7.53423 10.4234C7.62152 10.9333 7.86483 11.4035 8.23061 11.7693C8.59638 12.1351 9.06662 12.3784 9.57649 12.4657C10.0864 12.553 10.6108 12.4799 11.0774 12.2567L12.5115 13.69ZM15.4599 11.58C15.8624 11.1167 16.2315 10.5908 16.5582 10C15.0015 7.18335 12.4749 5.83335 9.99988 5.83335C9.90655 5.83335 9.81321 5.83529 9.71988 5.83918L8.23238 4.35251C8.81344 4.22898 9.40584 4.16669 9.99988 4.16668C13.2524 4.16668 16.4465 6.03001 18.2449 9.62751C18.3027 9.74318 18.3328 9.87071 18.3328 10C18.3328 10.1293 18.3027 10.2568 18.2449 10.3725C17.8187 11.2361 17.2792 12.039 16.6407 12.76L15.4599 11.58Z" fill="#818181"/>
</svg>
