<svg width="16" height="16" viewBox="0 0 16 16" fill="none" xmlns="http://www.w3.org/2000/svg">
<g clip-path="url(#clip0_3418_333742)">
<path d="M15.8583 8.00458C15.8583 12.5532 13.4663 15.2697 9.17374 15.6697C8.54517 15.7269 8.03088 15.2092 8.03088 14.5783V1.43201C8.03088 0.800012 8.54517 0.281155 9.17374 0.340583C13.4663 0.740583 15.8583 3.45487 15.8583 8.00458Z" fill="#969696"/>
<path fill-rule="evenodd" clip-rule="evenodd" d="M3.68803 3.31674C3.52072 3.47071 3.29909 3.55192 3.0719 3.54249C2.84471 3.53306 2.63058 3.43376 2.4766 3.26645C2.32262 3.09914 2.24142 2.87751 2.25085 2.65032C2.25552 2.53783 2.2823 2.42736 2.32966 2.32522C2.37702 2.22308 2.44404 2.13126 2.52689 2.05502C3.35289 1.30447 4.33373 0.744599 5.40003 0.415021C5.50734 0.381027 5.62029 0.368502 5.73244 0.378162C5.84459 0.387821 5.95374 0.419475 6.05365 0.471317C6.15357 0.523158 6.2423 0.594172 6.31477 0.680304C6.38724 0.766435 6.44204 0.865998 6.47603 0.973307C6.51002 1.08062 6.52255 1.19357 6.51289 1.30572C6.50323 1.41787 6.47157 1.52702 6.41973 1.62693C6.36789 1.72685 6.29688 1.81557 6.21075 1.88805C6.12461 1.96052 6.02505 2.01531 5.91774 2.04931C5.09103 2.30348 4.33025 2.73615 3.68917 3.31674H3.68803ZM0.254886 6.49159C0.178556 6.99081 0.14073 7.49515 0.141743 8.00016C0.141743 8.51902 0.180601 9.02302 0.256029 9.50874C0.294585 9.72997 0.418426 9.92724 0.60092 10.0581C0.783414 10.189 1.00998 10.243 1.2319 10.2086C1.45381 10.1741 1.65335 10.054 1.78759 9.87395C1.92183 9.69392 1.98006 9.46839 1.94974 9.24588C1.88663 8.83366 1.8553 8.41719 1.85603 8.00016C1.85603 7.56359 1.88803 7.14759 1.94974 6.75445C1.9846 6.5297 1.92875 6.3003 1.79447 6.11673C1.6602 5.93316 1.4585 5.81045 1.23374 5.77559C1.00899 5.74074 0.779598 5.79659 0.596026 5.93086C0.412455 6.06514 0.289743 6.26684 0.254886 6.49159ZM2.47774 12.7407C2.40133 12.8234 2.34196 12.9204 2.30302 13.026C2.26408 13.1316 2.24633 13.2439 2.25079 13.3564C2.25525 13.4689 2.28182 13.5794 2.329 13.6816C2.37618 13.7839 2.44303 13.8758 2.52574 13.9522C3.35163 14.7042 4.3341 15.2635 5.40232 15.5899C5.5097 15.6236 5.62268 15.6359 5.73481 15.626C5.84695 15.6161 5.95603 15.5843 6.05584 15.5322C6.25742 15.4271 6.40897 15.2462 6.47717 15.0293C6.51094 14.9219 6.52323 14.8089 6.51333 14.6968C6.50344 14.5847 6.47155 14.4756 6.4195 14.3758C6.36744 14.276 6.29624 14.1874 6.20995 14.1151C6.12367 14.0428 6.02398 13.9882 5.9166 13.9545C5.08953 13.704 4.32836 13.273 3.68803 12.6927C3.52109 12.5388 3.29987 12.4574 3.07296 12.4664C2.84604 12.4754 2.63197 12.574 2.47774 12.7407Z" fill="#818181"/>
</g>
<defs>
<clipPath id="clip0_3418_333742">
<rect width="16" height="16" fill="white"/>
</clipPath>
</defs>
</svg>
